<?xml version="1.0" encoding="UTF-8" standalone="no"?><svg width="100%" height="100%" viewBox="0 0 12 12" version="1.1" xmlns="http://www.w3.org/2000/svg" xmlns:xlink="http://www.w3.org/1999/xlink" xml:space="preserve" style="fill-rule:evenodd;clip-rule:evenodd;stroke-linecap:round;"><g><path d="M3.762,9.539l0.511,0.051c1.447,0.144 2.17,0.216 2.669,-0.179c0.499,-0.394 0.578,-1.101 0.737,-2.514l0.224,-1.999c0.159,-1.414 0.238,-2.12 -0.162,-2.604c-0.4,-0.484 -1.123,-0.556 -2.57,-0.699l-0.511,-0.051c-1.447,-0.144 -2.17,-0.216 -2.669,0.179c-0.499,0.394 -0.579,1.101 -0.738,2.514l-0.224,1.999c-0.159,1.414 -0.239,2.12 0.162,2.604c0.4,0.484 1.123,0.556 2.57,0.699Z" style="fill:none;fill-rule:nonzero;stroke:#000;stroke-width:0.7px;"/><path d="M3.071,5.74l2.369,0.247" style="fill:none;fill-rule:nonzero;stroke:#000;stroke-width:0.72px;"/><path d="M2.914,7.375l2.948,0.307" style="fill:none;fill-rule:nonzero;stroke:#000;stroke-width:0.77px;"/><path d="M3.282,4.204l1.184,0.124" style="fill:none;fill-rule:nonzero;stroke:#000;stroke-width:0.72px;"/><path d="M6.798,0.791l-0.236,1.918" style="fill:none;fill-rule:nonzero;stroke:#000;stroke-width:0.77px;"/><path d="M5.059,0.624l-0.236,1.918" style="fill:none;fill-rule:nonzero;stroke:#000;stroke-width:0.77px;"/><path d="M3.282,0.47l-0.236,1.918" style="fill:none;fill-rule:nonzero;stroke:#000;stroke-width:0.77px;"/><path d="M6.079,10.716l0.386,0.187c1.092,0.526 1.638,0.79 2.129,0.52c0.49,-0.269 0.733,-0.966 1.217,-2.359l0.686,-1.971c0.485,-1.393 0.728,-2.09 0.539,-2.687c-0.163,-0.516 -0.639,-0.798 -1.274,-0.878" style="fill:none;fill-rule:nonzero;stroke:#000;stroke-width:0.77px;"/></g></svg>
