<?xml version="1.0" encoding="UTF-8" standalone="no"?><!DOCTYPE svg PUBLIC "-//W3C//DTD SVG 1.1//EN" "http://www.w3.org/Graphics/SVG/1.1/DTD/svg11.dtd"><svg width="100%" height="100%" viewBox="0 0 128 128" version="1.1" xmlns="http://www.w3.org/2000/svg" xmlns:xlink="http://www.w3.org/1999/xlink" xml:space="preserve" xmlns:serif="http://www.serif.com/" style="fill-rule:evenodd;clip-rule:evenodd;stroke-linecap:round;"><g><path d="M27.147,60.659l25.272,2.634" style="fill:none;fill-rule:nonzero;stroke:#000;stroke-width:8.2px;"/><path d="M25.474,78.099l31.448,3.278" style="fill:none;fill-rule:nonzero;stroke:#000;stroke-width:8.23px;"/><path d="M29.397,44.275l12.631,1.32" style="fill:none;fill-rule:nonzero;stroke:#000;stroke-width:8.2px;"/><path d="M66.904,7.868l-2.512,20.462" style="fill:none;fill-rule:nonzero;stroke:#000;stroke-width:8.23px;"/><path d="M48.351,6.083l-2.512,20.462" style="fill:none;fill-rule:nonzero;stroke:#000;stroke-width:8.23px;"/><path d="M29.397,4.44l-2.512,20.462" style="fill:none;fill-rule:nonzero;stroke:#000;stroke-width:8.23px;"/><path d="M72.055,115.465l4.197,1.816c11.877,5.123 17.811,7.687 22.918,4.596c5.097,-3.086 7.377,-10.622 11.921,-25.688l6.434,-21.314c4.549,-15.066 6.804,-22.181 4.546,-28.874c-2.368,-7.018 -9.008,-9.176 -21.569,-11.82" style="fill:none;fill-rule:nonzero;stroke:#000;stroke-width:8.23px;"/><path d="M79.982,35.933l-5.686,53.232c-0.928,8.687 -8.734,14.986 -17.42,14.058l-38.522,-4.115c-8.687,-0.928 -14.986,-8.734 -14.058,-17.42l5.686,-53.232c0.928,-8.687 8.734,-14.986 17.42,-14.058l38.522,4.115c8.687,0.928 14.986,8.734 14.058,17.42Z" style="fill:none;stroke:#000;stroke-width:7.47px;stroke-linejoin:round;stroke-miterlimit:1.5;"/></g></svg>