<?xml version="1.0" encoding="UTF-8" standalone="no"?><!DOCTYPE svg PUBLIC "-//W3C//DTD SVG 1.1//EN" "http://www.w3.org/Graphics/SVG/1.1/DTD/svg11.dtd"><svg width="100%" height="100%" viewBox="0 0 534 534" version="1.1" xmlns="http://www.w3.org/2000/svg" xmlns:xlink="http://www.w3.org/1999/xlink" xml:space="preserve" xmlns:serif="http://www.serif.com/" style="fill-rule:evenodd;clip-rule:evenodd;stroke-linecap:round;"><g transform="matrix(4.166667,0,0,4.166667,0,0)"><g transform="matrix(5.333333,0,0,5.333333,0,0)"><g transform="matrix(0.16231,0,0,0.16231,1.612128,2.063516)"><path d="M128,25.869L128,102.131C128,116.408 116.408,128 102.131,128L25.869,128C11.592,128 0,116.408 0,102.131L0,25.869C0,11.592 11.592,0 25.869,0L102.131,0C116.408,0 128,11.592 128,25.869Z" style="fill:rgb(18,55,78);"/></g><g transform="matrix(0.262106,0,0,0.262106,-3.735355,-7.04079)"><path d="M30,40L30,114" style="fill:none;fill-rule:nonzero;stroke:rgb(26,92,66);stroke-width:5.58px;"/></g><g transform="matrix(0.162565,0,0,0.207163,-0.749137,-4.843071)"><path d="M30,58L48,58" style="fill:none;fill-rule:nonzero;stroke:rgb(26,92,66);stroke-width:7.86px;"/></g><g transform="matrix(0.207163,0,0,0.207163,-2.087066,-4.843071)"><circle cx="57" cy="58" r="7" style="fill:rgb(26,92,66);stroke:rgb(75,153,100);stroke-width:0.32px;stroke-linecap:butt;stroke-linejoin:round;stroke-miterlimit:2;"/></g><g transform="matrix(0.210526,0,0,0.222222,-2.315789,-5.789205)"><path d="M106,55.062L106,62.938C106,65.732 103.606,68 100.656,68L73.344,68C70.394,68 68,65.732 68,62.938L68,55.062C68,52.268 70.394,50 73.344,50L100.656,50C103.606,50 106,52.268 106,55.062Z" style="fill:rgb(62,207,142);fill-opacity:0.5;stroke:rgb(75,153,100);stroke-opacity:0.5;stroke-width:0.34px;stroke-linecap:butt;stroke-miterlimit:2;"/></g><g transform="matrix(1,0,0,1,0,-0.057623)"><g transform="matrix(0.207163,0,0,0.207163,-2.087066,-4.843071)"><path d="M73,56L101,56" style="fill:none;fill-rule:nonzero;stroke:white;stroke-width:3.86px;"/></g><g transform="matrix(0.207163,0,0,0.207163,-2.087066,-4.843071)"><path d="M73,62L97,62" style="fill:none;fill-rule:nonzero;stroke:white;stroke-width:3.86px;"/></g></g><g transform="matrix(0.162565,0,0,0.207163,-0.749137,-4.843071)"><path d="M30,82L48,82" style="fill:none;fill-rule:nonzero;stroke:rgb(26,92,66);stroke-width:7.86px;"/></g><g transform="matrix(0.207163,0,0,0.207163,-2.087066,-4.843071)"><circle cx="57" cy="82" r="7" style="fill:rgb(62,207,142);stroke:rgb(75,153,100);stroke-width:0.32px;stroke-linecap:butt;stroke-linejoin:round;stroke-miterlimit:2;"/></g><g transform="matrix(0.210526,0,0,0.222222,-2.315789,-6.201228)"><path d="M106,79.062L106,86.938C106,89.732 103.606,92 100.656,92L73.344,92C70.394,92 68,89.732 68,86.938L68,79.062C68,76.268 70.394,74 73.344,74L100.656,74C103.606,74 106,76.268 106,79.062Z" style="fill:rgb(62,207,142);fill-opacity:0.8;stroke:rgb(75,153,100);stroke-opacity:0.8;stroke-width:0.34px;stroke-linecap:butt;stroke-miterlimit:2;"/></g><g transform="matrix(1,0,0,1,0,-0.108219)"><g transform="matrix(0.207163,0,0,0.207163,-2.087066,-4.843071)"><path d="M73,80L101,80" style="fill:none;fill-rule:nonzero;stroke:rgb(15,45,64);stroke-width:3.86px;"/></g><g transform="matrix(0.207163,0,0,0.207163,-2.087066,-4.843071)"><path d="M73,86L97,86" style="fill:none;fill-rule:nonzero;stroke:rgb(15,45,64);stroke-width:3.86px;"/></g></g><g transform="matrix(0.162565,0,0,0.207163,-0.749137,-4.843071)"><path d="M30,106L48,106" style="fill:none;fill-rule:nonzero;stroke:rgb(26,92,66);stroke-width:7.86px;"/></g><g transform="matrix(0.207163,0,0,0.207163,-2.087066,-4.843071)"><circle cx="57" cy="106" r="7" style="fill:rgb(92,73,26);fill-opacity:0.8;stroke:rgb(116,101,52);stroke-opacity:0.8;stroke-width:0.32px;stroke-linecap:butt;stroke-linejoin:round;stroke-miterlimit:2;"/></g><g transform="matrix(0.210526,0,0,0.222222,-2.315789,-6.371804)"><path d="M106,103.062L106,110.938C106,113.732 103.606,116 100.656,116L73.344,116C70.394,116 68,113.732 68,110.938L68,103.062C68,100.268 70.394,98 73.344,98L100.656,98C103.606,98 106,100.268 106,103.062Z" style="fill:rgb(207,146,62);fill-opacity:0.8;stroke:rgb(116,101,52);stroke-opacity:0.8;stroke-width:0.34px;stroke-linecap:butt;stroke-miterlimit:2;"/></g><g transform="matrix(1,0,0,1,0,0.082634)"><g transform="matrix(0.207163,0,0,0.207163,-2.087066,-4.843071)"><path d="M73,104L101,104" style="fill:none;fill-rule:nonzero;stroke:white;stroke-opacity:0.5;stroke-width:3.86px;"/></g><g transform="matrix(0.207163,0,0,0.207163,-2.087066,-4.843071)"><path d="M73,110L97,110" style="fill:none;fill-rule:nonzero;stroke:white;stroke-opacity:0.5;stroke-width:3.86px;"/></g></g><g transform="matrix(0.207163,0,0,0.207163,-2.087066,-4.565692)"><circle cx="30" cy="32" r="8" style="fill:rgb(62,207,142);stroke:rgb(38,126,103);stroke-width:0.88px;stroke-linecap:butt;stroke-linejoin:round;stroke-miterlimit:2;"/></g></g></g></svg>