<?xml version="1.0" encoding="UTF-8" standalone="no"?><!DOCTYPE svg PUBLIC "-//W3C//DTD SVG 1.1//EN" "http://www.w3.org/Graphics/SVG/1.1/DTD/svg11.dtd"><svg width="100%" height="100%" viewBox="0 0 512 512" version="1.1" xmlns="http://www.w3.org/2000/svg" xmlns:xlink="http://www.w3.org/1999/xlink" xml:space="preserve" xmlns:serif="http://www.serif.com/" style="fill-rule:evenodd;clip-rule:evenodd;stroke-linecap:round;stroke-miterlimit:2;"><g><g id="レイヤー1" transform="matrix(4,0,0,4,0,-4)"><g transform="matrix(1.001383,0.140735,-0.140735,1.001383,10.177343,-7.160449)"><path d="M117.323,40.477L117.323,91.664C117.323,105.79 105.854,117.258 91.729,117.258L36.53,117.258C22.404,117.258 10.936,105.79 10.936,91.664L10.936,40.477C10.936,26.352 22.404,14.884 36.53,14.884L91.729,14.884C105.854,14.884 117.323,26.352 117.323,40.477Z" style="fill:url(#_Linear1);"/></g><g transform="matrix(1.001383,0.140735,-0.140735,1.001383,10.177343,-7.160449)"><path d="M117.323,40.477L117.323,91.664C117.323,105.79 105.854,117.258 91.729,117.258L36.53,117.258C22.404,117.258 10.936,105.79 10.936,91.664L10.936,40.477C10.936,26.352 22.404,14.884 36.53,14.884L91.729,14.884C105.854,14.884 117.323,26.352 117.323,40.477Z" style="fill:none;stroke:rgb(16,79,87);stroke-width:7.91px;"/></g><g transform="matrix(1.385031,0.194653,-0.194653,1.385031,1.840594,-41.315159)"><path d="M32.791,44.645L32.791,51.436L41.164,51.436C42.704,51.436 43.955,52.686 43.955,54.227C43.955,55.767 42.704,57.018 41.164,57.018L32.791,57.018L32.791,70.405L41.164,70.405C42.704,70.405 43.955,71.655 43.955,73.196C43.955,74.736 42.704,75.987 41.164,75.987L32.791,75.987L32.791,89.374L41.164,89.374C42.704,89.374 43.955,90.625 43.955,92.165C43.955,93.705 42.704,94.956 41.164,94.956L32.791,94.956L32.791,114C32.791,115.54 31.54,116.791 30,116.791C28.46,116.791 27.209,115.54 27.209,114L27.209,44.449C23.902,43.202 21.548,40.007 21.548,36.266C21.548,31.441 25.465,27.523 30.291,27.523C35.116,27.523 39.033,31.441 39.033,36.266C39.033,40.222 36.399,43.568 32.791,44.645Z" style="fill:url(#_Radial2);"/></g><g transform="matrix(1.385031,0.194653,-0.194653,1.385031,1.840594,-41.315159)"><path d="M32.791,44.645L32.791,51.436L41.164,51.436C42.704,51.436 43.955,52.686 43.955,54.227C43.955,55.767 42.704,57.018 41.164,57.018L32.791,57.018L32.791,70.405L41.164,70.405C42.704,70.405 43.955,71.655 43.955,73.196C43.955,74.736 42.704,75.987 41.164,75.987L32.791,75.987L32.791,89.374L41.164,89.374C42.704,89.374 43.955,90.625 43.955,92.165C43.955,93.705 42.704,94.956 41.164,94.956L32.791,94.956L32.791,114C32.791,115.54 31.54,116.791 30,116.791C28.46,116.791 27.209,115.54 27.209,114L27.209,44.449C23.902,43.202 21.548,40.007 21.548,36.266C21.548,31.441 25.465,27.523 30.291,27.523C35.116,27.523 39.033,31.441 39.033,36.266C39.033,40.222 36.399,43.568 32.791,44.645Z" style="fill:url(#_Radial3);"/></g><g transform="matrix(5.28143,0.742257,-0.742257,5.28143,4.139732,-6.513335)"><g><g transform="matrix(0.210526,0,0,0.222222,-2.315789,-6.454437)"><path d="M106,102.831L106,111.169C106,113.835 103.715,116 100.901,116L73.099,116C70.285,116 68,113.835 68,111.169L68,102.831C68,100.165 70.285,98 73.099,98L100.901,98C103.715,98 106,100.165 106,102.831Z" style="fill:url(#_Linear4);"/></g><g transform="matrix(0.207163,0,0,0.207163,-2.087066,-4.843071)"><path d="M73,104L101,104" style="fill:none;fill-rule:nonzero;stroke:white;stroke-opacity:0.5;stroke-width:3.86px;stroke-miterlimit:4;"/></g><g transform="matrix(0.207163,0,0,0.207163,-2.087066,-4.843071)"><path d="M73,110L97,110" style="fill:none;fill-rule:nonzero;stroke:white;stroke-opacity:0.5;stroke-width:3.86px;stroke-miterlimit:4;"/></g></g><g><g transform="matrix(0.210526,0,0,0.222222,-2.315789,-6.454437)"><path d="M106,102.831L106,111.169C106,113.835 103.715,116 100.901,116L73.099,116C70.285,116 68,113.835 68,111.169L68,102.831C68,100.165 70.285,98 73.099,98L100.901,98C103.715,98 106,100.165 106,102.831Z" style="fill:url(#_Linear5);"/></g><g transform="matrix(0.207163,0,0,0.207163,-2.087066,-4.843071)"><path d="M73,104L101,104" style="fill:none;fill-rule:nonzero;stroke:white;stroke-opacity:0.5;stroke-width:3.86px;stroke-miterlimit:4;"/></g><g transform="matrix(0.207163,0,0,0.207163,-2.087066,-4.843071)"><path d="M73,110L97,110" style="fill:none;fill-rule:nonzero;stroke:white;stroke-opacity:0.5;stroke-width:3.86px;stroke-miterlimit:4;"/></g></g></g><g transform="matrix(5.28143,0.742257,-0.742257,5.28143,4.281394,-6.883714)"><g><g transform="matrix(0.210526,0,0,0.222222,-2.315789,-6.093009)"><path d="M106,78.831L106,87.169C106,89.835 103.715,92 100.901,92L73.099,92C70.285,92 68,89.835 68,87.169L68,78.831C68,76.165 70.285,74 73.099,74L100.901,74C103.715,74 106,76.165 106,78.831Z" style="fill:url(#_Linear6);"/></g><g transform="matrix(0.207163,0,0,0.207163,-2.087066,-4.843071)"><path d="M73,80L101,80" style="fill:none;fill-rule:nonzero;stroke:rgb(15,45,64);stroke-width:3.86px;stroke-miterlimit:4;"/></g><g transform="matrix(0.207163,0,0,0.207163,-2.087066,-4.843071)"><path d="M73,86L97,86" style="fill:none;fill-rule:nonzero;stroke:rgb(15,45,64);stroke-width:3.86px;stroke-miterlimit:4;"/></g></g><g><g transform="matrix(0.210526,0,0,0.222222,-2.315789,-6.093009)"><path d="M106,78.831L106,87.169C106,89.835 103.715,92 100.901,92L73.099,92C70.285,92 68,89.835 68,87.169L68,78.831C68,76.165 70.285,74 73.099,74L100.901,74C103.715,74 106,76.165 106,78.831Z" style="fill:url(#_Linear7);"/></g><g transform="matrix(0.207163,0,0,0.207163,-2.087066,-4.843071)"><path d="M73,80L101,80" style="fill:none;fill-rule:nonzero;stroke:rgb(15,45,64);stroke-width:3.86px;stroke-miterlimit:4;"/></g><g transform="matrix(0.207163,0,0,0.207163,-2.087066,-4.843071)"><path d="M73,86L97,86" style="fill:none;fill-rule:nonzero;stroke:rgb(15,45,64);stroke-width:3.86px;stroke-miterlimit:4;"/></g></g></g><g transform="matrix(5.28143,0.742257,-0.742257,5.28143,4.243839,-7.254092)"><g><g opacity="0.5"><g transform="matrix(0.210526,0,0,0.222222,-2.315789,-5.731581)"><path d="M106,54.831L106,63.169C106,65.835 103.715,68 100.901,68L73.099,68C70.285,68 68,65.835 68,63.169L68,54.831C68,52.165 70.285,50 73.099,50L100.901,50C103.715,50 106,52.165 106,54.831Z" style="fill:url(#_Linear8);"/></g><g transform="matrix(0.210526,0,0,0.222222,-2.315789,-5.731581)"><path d="M106,54.831L106,63.169C106,65.835 103.715,68 100.901,68L73.099,68C70.285,68 68,65.835 68,63.169L68,54.831C68,52.165 70.285,50 73.099,50L100.901,50C103.715,50 106,52.165 106,54.831Z" style="fill:url(#_Linear9);"/></g></g><g transform="matrix(0.207163,0,0,0.207163,-2.087066,-4.843071)"><path d="M73,56L101,56" style="fill:none;fill-rule:nonzero;stroke:white;stroke-width:3.86px;stroke-miterlimit:4;"/></g><g transform="matrix(0.207163,0,0,0.207163,-2.087066,-4.843071)"><path d="M73,62L97,62" style="fill:none;fill-rule:nonzero;stroke:white;stroke-width:3.86px;stroke-miterlimit:4;"/></g></g><g><g opacity="0.5"><g transform="matrix(0.210526,0,0,0.222222,-2.315789,-5.731581)"><path d="M106,54.831L106,63.169C106,65.835 103.715,68 100.901,68L73.099,68C70.285,68 68,65.835 68,63.169L68,54.831C68,52.165 70.285,50 73.099,50L100.901,50C103.715,50 106,52.165 106,54.831Z" style="fill:url(#_Linear10);"/></g><g transform="matrix(0.210526,0,0,0.222222,-2.315789,-5.731581)"><path d="M106,54.831L106,63.169C106,65.835 103.715,68 100.901,68L73.099,68C70.285,68 68,65.835 68,63.169L68,54.831C68,52.165 70.285,50 73.099,50L100.901,50C103.715,50 106,52.165 106,54.831Z" style="fill:url(#_Linear11);"/></g></g><g transform="matrix(0.207163,0,0,0.207163,-2.087066,-4.843071)"><path d="M73,56L101,56" style="fill:none;fill-rule:nonzero;stroke:white;stroke-width:3.86px;stroke-miterlimit:4;"/></g><g transform="matrix(0.207163,0,0,0.207163,-2.087066,-4.843071)"><path d="M73,62L97,62" style="fill:none;fill-rule:nonzero;stroke:white;stroke-width:3.86px;stroke-miterlimit:4;"/></g></g></g></g></g><defs><linearGradient id="_Linear1" x1="0" y1="0" x2="1" y2="0" gradientUnits="userSpaceOnUse" gradientTransform="matrix(80.501517,72.736097,-72.736097,80.501517,26.984833,32.291203)"><stop offset="0" style="stop-color:rgb(0,89,125);stop-opacity:1"/><stop offset="1" style="stop-color:rgb(0,159,161);stop-opacity:1"/></linearGradient><radialGradient id="_Radial2" cx="0" cy="0" r="1" gradientUnits="userSpaceOnUse" gradientTransform="matrix(35.951338,65.222775,-309.955782,170.850214,8.045156,34.502758)"><stop offset="0" style="stop-color:rgb(0,213,117);stop-opacity:1"/><stop offset="0.64" style="stop-color:rgb(0,126,66);stop-opacity:1"/><stop offset="0.79" style="stop-color:rgb(0,112,60);stop-opacity:1"/><stop offset="1" style="stop-color:rgb(0,81,46);stop-opacity:1"/></radialGradient><radialGradient id="_Radial3" cx="0" cy="0" r="1" gradientUnits="userSpaceOnUse" gradientTransform="matrix(35.951338,65.222775,-309.955782,170.850214,8.045156,34.502758)"><stop offset="0" style="stop-color:rgb(0,213,117);stop-opacity:1"/><stop offset="0.64" style="stop-color:rgb(0,126,66);stop-opacity:1"/><stop offset="0.79" style="stop-color:rgb(0,112,60);stop-opacity:1"/><stop offset="1" style="stop-color:rgb(0,81,46);stop-opacity:1"/></radialGradient><linearGradient id="_Linear4" x1="0" y1="0" x2="1" y2="0" gradientUnits="userSpaceOnUse" gradientTransform="matrix(38,-0,0,18,68,107)"><stop offset="0" style="stop-color:rgb(199,119,44);stop-opacity:0.8"/><stop offset="1" style="stop-color:rgb(204,140,51);stop-opacity:0.8"/></linearGradient><linearGradient id="_Linear5" x1="0" y1="0" x2="1" y2="0" gradientUnits="userSpaceOnUse" gradientTransform="matrix(38,-0,0,18,68,107)"><stop offset="0" style="stop-color:rgb(199,119,44);stop-opacity:0.8"/><stop offset="1" style="stop-color:rgb(204,140,51);stop-opacity:0.8"/></linearGradient><linearGradient id="_Linear6" x1="0" y1="0" x2="1" y2="0" gradientUnits="userSpaceOnUse" gradientTransform="matrix(38,0,-0,36,68,83)"><stop offset="0" style="stop-color:rgb(33,131,87);stop-opacity:0.8"/><stop offset="1" style="stop-color:rgb(62,207,142);stop-opacity:0.8"/></linearGradient><linearGradient id="_Linear7" x1="0" y1="0" x2="1" y2="0" gradientUnits="userSpaceOnUse" gradientTransform="matrix(38,0,-0,36,68,83)"><stop offset="0" style="stop-color:rgb(33,131,87);stop-opacity:0.8"/><stop offset="1" style="stop-color:rgb(62,207,142);stop-opacity:0.8"/></linearGradient><linearGradient id="_Linear8" x1="0" y1="0" x2="1" y2="0" gradientUnits="userSpaceOnUse" gradientTransform="matrix(38,0,-0,36,68,59)"><stop offset="0" style="stop-color:rgb(45,224,144);stop-opacity:1"/><stop offset="1" style="stop-color:rgb(33,131,87);stop-opacity:1"/></linearGradient><linearGradient id="_Linear9" x1="0" y1="0" x2="1" y2="0" gradientUnits="userSpaceOnUse" gradientTransform="matrix(38,0,-0,36,68,59)"><stop offset="0" style="stop-color:rgb(45,224,144);stop-opacity:1"/><stop offset="1" style="stop-color:rgb(33,131,87);stop-opacity:1"/></linearGradient><linearGradient id="_Linear10" x1="0" y1="0" x2="1" y2="0" gradientUnits="userSpaceOnUse" gradientTransform="matrix(38,0,-0,36,68,59)"><stop offset="0" style="stop-color:rgb(45,224,144);stop-opacity:1"/><stop offset="1" style="stop-color:rgb(33,131,87);stop-opacity:1"/></linearGradient><linearGradient id="_Linear11" x1="0" y1="0" x2="1" y2="0" gradientUnits="userSpaceOnUse" gradientTransform="matrix(38,0,-0,36,68,59)"><stop offset="0" style="stop-color:rgb(45,224,144);stop-opacity:1"/><stop offset="1" style="stop-color:rgb(33,131,87);stop-opacity:1"/></linearGradient></defs></svg>